<svg width="22" height="22" viewBox="0 0 22 22" fill="none" xmlns="http://www.w3.org/2000/svg">
<g clip-path="url(#clip0_181_1413)">
<path d="M20.6018 17.875H19.25V8.25002C19.25 7.88535 19.1051 7.53561 18.8473 7.27775C18.5894 7.01989 18.2397 6.87502 17.875 6.87502H14.0938C14.0026 6.87502 13.9151 6.91124 13.8507 6.97571C13.7862 7.04017 13.75 7.1276 13.75 7.21877V17.875H12.375V2.78526C12.3773 2.57109 12.3308 2.3592 12.2391 2.16565C12.1474 1.97209 12.0128 1.80194 11.8456 1.66807C11.6177 1.49038 11.3396 1.38902 11.0508 1.37837C10.762 1.36773 10.4772 1.44835 10.2369 1.60877L3.36187 6.18752C3.17328 6.31335 3.01872 6.48387 2.91196 6.68388C2.80521 6.8839 2.74957 7.10721 2.75 7.33393V17.875H1.3982C1.22054 17.8724 1.04848 17.9372 0.916621 18.0563C0.784766 18.1754 0.702903 18.34 0.6875 18.517C0.681256 18.611 0.694414 18.7053 0.726157 18.7941C0.757901 18.8828 0.807551 18.9641 0.872024 19.0328C0.936498 19.1016 1.01442 19.1563 1.10094 19.1937C1.18747 19.2311 1.28075 19.2502 1.375 19.25H20.625C20.7192 19.2502 20.8125 19.2311 20.8991 19.1937C20.9856 19.1563 21.0635 19.1016 21.128 19.0328C21.1924 18.9641 21.2421 18.8828 21.2738 18.7941C21.3056 18.7053 21.3187 18.611 21.3125 18.517C21.2971 18.34 21.2152 18.1754 21.0834 18.0563C20.9515 17.9372 20.7795 17.8724 20.6018 17.875ZM6.53125 15.8125C6.53146 15.9068 6.51228 16.0001 6.47492 16.0866C6.43756 16.1731 6.3828 16.251 6.31406 16.3155C6.24531 16.38 6.16405 16.4296 6.07531 16.4614C5.98656 16.4931 5.89224 16.5063 5.7982 16.5C5.62104 16.4846 5.4563 16.4026 5.33718 16.2706C5.21806 16.1385 5.15341 15.9663 5.15625 15.7885V14.4607C5.15383 14.2831 5.21865 14.1112 5.33771 13.9794C5.45677 13.8475 5.62127 13.7656 5.7982 13.75C5.89224 13.7438 5.98656 13.7569 6.07531 13.7887C6.16405 13.8204 6.24531 13.8701 6.31406 13.9345C6.3828 13.999 6.43756 14.0769 6.47492 14.1635C6.51228 14.25 6.53146 14.3433 6.53125 14.4375V15.8125ZM6.53125 11C6.53146 11.0943 6.51228 11.1876 6.47492 11.2741C6.43756 11.3606 6.3828 11.4385 6.31406 11.503C6.24531 11.5675 6.16405 11.6171 6.07531 11.6489C5.98656 11.6806 5.89224 11.6938 5.7982 11.6875C5.62112 11.6719 5.4565 11.5899 5.33741 11.4579C5.21833 11.3259 5.15361 11.1537 5.15625 10.976V9.64823C5.15383 9.47062 5.21865 9.29867 5.33771 9.16685C5.45677 9.03504 5.62127 8.95312 5.7982 8.93752C5.89224 8.93128 5.98656 8.94444 6.07531 8.97618C6.16405 9.00792 6.24531 9.05757 6.31406 9.12205C6.3828 9.18652 6.43756 9.26444 6.47492 9.35097C6.51228 9.43749 6.53146 9.53078 6.53125 9.62502V11ZM9.96875 15.8125C9.96896 15.9068 9.94978 16.0001 9.91242 16.0866C9.87506 16.1731 9.8203 16.251 9.75156 16.3155C9.68281 16.38 9.60155 16.4296 9.51281 16.4614C9.42406 16.4931 9.32974 16.5063 9.2357 16.5C9.05884 16.4846 8.89435 16.4029 8.77527 16.2712C8.65619 16.1395 8.59135 15.9677 8.59375 15.7902V14.4607C8.59155 14.2833 8.65647 14.1115 8.77551 13.9799C8.89455 13.8483 9.05892 13.7665 9.2357 13.7509C9.32974 13.7446 9.42406 13.7578 9.51281 13.7895C9.60155 13.8213 9.68281 13.8709 9.75156 13.9354C9.8203 13.9999 9.87506 14.0778 9.91242 14.1643C9.94978 14.2509 9.96896 14.3441 9.96875 14.4384V15.8125ZM9.96875 11C9.96896 11.0943 9.94978 11.1876 9.91242 11.2741C9.87506 11.3606 9.8203 11.4385 9.75156 11.503C9.68281 11.5675 9.60155 11.6171 9.51281 11.6489C9.42406 11.6806 9.32974 11.6938 9.2357 11.6875C9.05892 11.6719 8.89455 11.5901 8.77551 11.4585C8.65647 11.3269 8.59155 11.1551 8.59375 10.9777V9.64823C8.59155 9.47077 8.65647 9.29903 8.77551 9.1674C8.89455 9.03577 9.05892 8.95397 9.2357 8.93838C9.32974 8.93214 9.42406 8.9453 9.51281 8.97704C9.60155 9.00878 9.68281 9.05843 9.75156 9.12291C9.8203 9.18738 9.87506 9.2653 9.91242 9.35183C9.94978 9.43835 9.96896 9.53164 9.96875 9.62588V11Z" fill="white"/>
</g>
<defs>
<clipPath id="clip0_181_1413">
<rect width="22" height="22" fill="white"/>
</clipPath>
</defs>
</svg>
