<svg width="22" height="22" viewBox="0 0 22 22" fill="none" xmlns="http://www.w3.org/2000/svg">
<g clip-path="url(#clip0_181_1427)">
<path d="M19.25 4.125H2.75C2.56766 4.125 2.3928 4.19743 2.26386 4.32636C2.13493 4.4553 2.0625 4.63016 2.0625 4.8125V16.5C2.0625 16.8647 2.20737 17.2144 2.46523 17.4723C2.72309 17.7301 3.07283 17.875 3.4375 17.875H18.5625C18.9272 17.875 19.2769 17.7301 19.5348 17.4723C19.7926 17.2144 19.9375 16.8647 19.9375 16.5V4.8125C19.9375 4.63016 19.8651 4.4553 19.7361 4.32636C19.6072 4.19743 19.4323 4.125 19.25 4.125ZM8.48289 11L3.4375 15.6243V6.3757L8.48289 11ZM9.50039 11.9324L10.5316 12.882C10.6585 12.9985 10.8244 13.0631 10.9966 13.0631C11.1687 13.0631 11.3346 12.9985 11.4615 12.882L12.4927 11.9324L17.4771 16.5H4.51773L9.50039 11.9324ZM13.5171 11L18.5625 6.37484V15.6252L13.5171 11Z" fill="white"/>
</g>
<defs>
<clipPath id="clip0_181_1427">
<rect width="22" height="22" fill="white"/>
</clipPath>
</defs>
</svg>
