<svg width="19" height="18" viewBox="0 0 19 18" fill="none" xmlns="http://www.w3.org/2000/svg">
<g clip-path="url(#clip0_334_666)">
<path d="M16.7702 3.11767C16.7702 3.11767 16.7702 3.1247 16.7702 3.12822L12.678 16.624C12.616 16.8432 12.4885 17.0382 12.3126 17.1829C12.1366 17.3275 11.9206 17.4149 11.6936 17.4333C11.6613 17.4361 11.6289 17.4375 11.5966 17.4375C11.3838 17.4382 11.1753 17.378 10.9956 17.264C10.816 17.15 10.6727 16.9869 10.5827 16.7942L8.0718 11.4933C8.04701 11.4409 8.03904 11.382 8.04898 11.3249C8.05893 11.2677 8.0863 11.2151 8.12734 11.1741L12.1534 7.14728C12.2545 7.04093 12.31 6.89932 12.3081 6.75265C12.3062 6.60597 12.2471 6.46582 12.1434 6.3621C12.0397 6.25837 11.8995 6.19927 11.7528 6.19739C11.6062 6.19551 11.4646 6.25101 11.3582 6.35205L7.32578 10.3781C7.2848 10.4192 7.23212 10.4466 7.17497 10.4565C7.11783 10.4664 7.059 10.4585 7.00656 10.4337L1.73312 7.93548C1.52601 7.8406 1.35172 7.68639 1.23231 7.49238C1.1129 7.29837 1.05375 7.07329 1.06234 6.84564C1.0738 6.61166 1.1585 6.38721 1.30449 6.204C1.45047 6.02079 1.65035 5.88811 1.87586 5.8247L15.3716 1.73251H15.3822C15.5743 1.67853 15.7774 1.67664 15.9705 1.72703C16.1636 1.77743 16.3399 1.87829 16.4812 2.01928C16.6224 2.16027 16.7237 2.33631 16.7744 2.52933C16.8252 2.72235 16.8238 2.92541 16.7702 3.11767Z" fill="white"/>
</g>
<defs>
<clipPath id="clip0_334_666">
<rect width="18" height="18" fill="white" transform="translate(0.5)"/>
</clipPath>
</defs>
</svg>
