<svg width="53" height="53" viewBox="0 0 53 53" fill="none" xmlns="http://www.w3.org/2000/svg">
<g clip-path="url(#clip0_81_143)">
<path d="M26.0515 13.8929C28.7438 13.8929 30.9265 11.7103 30.9265 9.01794C30.9265 6.32556 28.7438 4.14294 26.0515 4.14294C23.3591 4.14294 21.1765 6.32556 21.1765 9.01794C21.1765 11.7103 23.3591 13.8929 26.0515 13.8929Z" stroke="#FFE870" stroke-width="2" stroke-linecap="round" stroke-linejoin="round"/>
<path d="M30.3516 17.1429C31.0433 17.1431 31.7271 17.2904 32.3575 17.5751C32.9879 17.8598 33.5504 18.2755 34.0078 18.7944L43.2135 29.2309C43.4402 29.4576 43.62 29.7268 43.7428 30.0231C43.8655 30.3193 43.9286 30.6368 43.9286 30.9575C43.9286 31.2781 43.8655 31.5956 43.7428 31.8919C43.62 32.1881 43.4402 32.4573 43.2135 32.684C42.9867 32.9108 42.7175 33.0906 42.4213 33.2133C42.1251 33.336 41.8075 33.3992 41.4869 33.3992C41.1662 33.3992 40.8487 33.336 40.5525 33.2133C40.2562 33.0906 39.9871 32.9108 39.7603 32.684L32.5514 26.8929L37.1969 44.5506C37.4592 45.1349 37.481 45.7989 37.2576 46.3991C37.0342 46.9993 36.5836 47.4874 36.0031 47.758C35.4227 48.0287 34.7591 48.06 34.1557 47.8452C33.5524 47.6304 33.0578 47.1868 32.7789 46.6103L26.0514 35.0179L19.3239 46.6103C19.045 47.1868 18.5505 47.6304 17.9471 47.8452C17.3438 48.06 16.6802 48.0287 16.0997 47.758C15.5193 47.4874 15.0687 46.9993 14.8453 46.3991C14.6219 45.7989 14.6437 45.1349 14.906 44.5506L19.5514 26.8929L12.3385 32.68C11.8805 33.1379 11.2595 33.3951 10.6119 33.3951C9.96431 33.3951 9.34324 33.1379 8.88533 32.68C8.42742 32.2221 8.17017 31.601 8.17017 30.9534C8.17017 30.3058 8.42742 29.6848 8.88533 29.2269L18.095 18.7944C18.5524 18.2755 19.115 17.8598 19.7454 17.5751C20.3758 17.2904 21.0596 17.1431 21.7513 17.1429H30.3516Z" stroke="#FFE870" stroke-width="2" stroke-linecap="round" stroke-linejoin="round"/>
</g>
<defs>
<clipPath id="clip0_81_143">
<rect width="52" height="52" fill="white" transform="translate(0.0514526 0.892944)"/>
</clipPath>
</defs>
</svg>
