<svg width="53" height="53" viewBox="0 0 53 53" fill="none" xmlns="http://www.w3.org/2000/svg">
<g clip-path="url(#clip0_285_48)">
<path d="M36.8467 8.3949H42.5342C42.9652 8.3949 43.3785 8.5661 43.6832 8.87085C43.988 9.1756 44.1592 9.58892 44.1592 10.0199V15.7074" stroke="#FFE870" stroke-width="2" stroke-linecap="round" stroke-linejoin="round"/>
<path d="M36.8467 44.1449H42.5342C42.9652 44.1449 43.3785 43.9737 43.6832 43.6689C43.988 43.3642 44.1592 42.9509 44.1592 42.5199V36.8324" stroke="#FFE870" stroke-width="2" stroke-linecap="round" stroke-linejoin="round"/>
<path d="M15.7217 44.1449H10.0342C9.6032 44.1449 9.18988 43.9737 8.88513 43.6689C8.58038 43.3642 8.40918 42.9509 8.40918 42.5199V36.8324" stroke="#FFE870" stroke-width="2" stroke-linecap="round" stroke-linejoin="round"/>
<path d="M15.7217 8.3949H10.0342C9.6032 8.3949 9.18988 8.5661 8.88513 8.87085C8.58038 9.1756 8.40918 9.58892 8.40918 10.0199V15.7074" stroke="#FFE870" stroke-width="2" stroke-linecap="round" stroke-linejoin="round"/>
<path d="M26.2842 29.5199C29.874 29.5199 32.7842 26.6097 32.7842 23.0199C32.7842 19.43 29.874 16.5199 26.2842 16.5199C22.6943 16.5199 19.7842 19.43 19.7842 23.0199C19.7842 26.6097 22.6943 29.5199 26.2842 29.5199Z" stroke="#FFE870" stroke-width="2" stroke-linecap="round" stroke-linejoin="round"/>
<path d="M16.5342 34.3949C17.6694 32.8813 19.1415 31.6527 20.8338 30.8066C22.5261 29.9604 24.3921 29.5199 26.2842 29.5199C28.1762 29.5199 30.0423 29.9604 31.7346 30.8066C33.4269 31.6527 34.8989 32.8813 36.0342 34.3949" stroke="#FFE870" stroke-width="2" stroke-linecap="round" stroke-linejoin="round"/>
</g>
<defs>
<clipPath id="clip0_285_48">
<rect width="52" height="52" fill="white" transform="translate(0.28418 0.269897)"/>
</clipPath>
</defs>
</svg>
