<svg width="52" height="52" viewBox="0 0 52 52" fill="none" xmlns="http://www.w3.org/2000/svg">
<g clip-path="url(#clip0_81_202)">
<path d="M8.125 23.3167V11.375C8.125 10.944 8.29621 10.5307 8.60095 10.226C8.9057 9.92121 9.31902 9.75 9.75 9.75H42.25C42.681 9.75 43.0943 9.92121 43.399 10.226C43.7038 10.5307 43.875 10.944 43.875 11.375V23.3127C43.875 40.4117 29.3902 46.0769 26.4997 47.0377C26.1759 47.1494 25.8241 47.1494 25.5003 47.0377C22.6098 46.0809 8.125 40.4219 8.125 23.3167Z" stroke="#FFE870" stroke-width="2" stroke-linecap="round" stroke-linejoin="round"/>
<path d="M31.5 31.75C31.5 33.1424 30.9732 34.4777 30.0355 35.4623C29.0979 36.4469 27.8261 37 26.5 37C25.1739 37 23.9021 36.4469 22.9645 35.4623C22.0268 34.4777 21.5 33.1424 21.5 31.75C21.5 26.5 26.5 23 26.5 23C26.5 23 31.5 26.5 31.5 31.75Z" stroke="#FFE870" stroke-width="2" stroke-linecap="round" stroke-linejoin="round"/>
<path d="M35 28.0625C35 30.4329 34.1045 32.7062 32.5104 34.3823C30.9163 36.0584 28.7543 37 26.5 37C24.2457 37 22.0837 36.0584 20.4896 34.3823C18.8955 32.7062 18 30.4329 18 28.0625C18 20.5 26.5 15 26.5 15C26.5 15 35 20.5 35 28.0625Z" stroke="#FFE870" stroke-width="2" stroke-linecap="round" stroke-linejoin="round"/>
</g>
<defs>
<clipPath id="clip0_81_202">
<rect width="52" height="52" fill="white"/>
</clipPath>
</defs>
</svg>
