<svg width="22" height="27" viewBox="0 0 22 27" fill="none" xmlns="http://www.w3.org/2000/svg">
<g clip-path="url(#clip0_181_1422)">
<path d="M19.99 17.8418C19.8384 18.9935 19.2728 20.0508 18.3987 20.816C17.5246 21.5812 16.4018 22.0021 15.2401 22C8.49106 22 3.00001 16.5089 3.00001 9.75987C2.99793 8.59816 3.4188 7.47541 4.18401 6.60132C4.94923 5.72724 6.00646 5.16159 7.15825 5.01003C7.44951 4.97446 7.74446 5.03405 7.99906 5.17989C8.25367 5.32573 8.45429 5.55001 8.57096 5.81924L10.3662 9.82702V9.83722C10.4555 10.0433 10.4924 10.2683 10.4736 10.4921C10.4547 10.716 10.3807 10.9316 10.2582 11.1199C10.2429 11.1428 10.2268 11.1641 10.2098 11.1853L8.44006 13.2832C9.07672 14.5769 10.4299 15.9182 11.7406 16.5565L13.8096 14.7962C13.8299 14.7791 13.8512 14.7632 13.8733 14.7486C14.0614 14.6231 14.2778 14.5465 14.503 14.5258C14.7281 14.505 14.9549 14.5407 15.1628 14.6296L15.1738 14.6347L19.1782 16.429C19.4479 16.5453 19.6727 16.7457 19.8191 17.0004C19.9654 17.255 20.0253 17.5502 19.99 17.8418Z" fill="white"/>
</g>
<defs>
<clipPath id="clip0_181_1422">
<rect width="22" height="27" fill="white"/>
</clipPath>
</defs>
</svg>
