<svg width="50" height="50" viewBox="0 0 50 50" fill="none" xmlns="http://www.w3.org/2000/svg">
<path d="M31.9771 11.1437L38.8542 18.0208C39.0867 18.253 39.271 18.5287 39.3969 18.8322C39.5227 19.1357 39.5874 19.461 39.5874 19.7896C39.5874 20.1181 39.5227 20.4434 39.3969 20.7469C39.271 21.0504 39.0867 21.3261 38.8542 21.5583L36.8292 23.5833C37.8404 26.9167 37.7086 30.4924 36.455 33.7424C35.2013 36.9923 32.8976 39.7301 29.9098 41.5209C26.922 43.3117 23.4215 44.0528 19.9643 43.6264C16.5071 43.2 13.2916 41.6306 10.8284 39.1674C8.36532 36.7043 6.7959 33.4888 6.36949 30.0316C5.94308 26.5744 6.68413 23.0739 8.47493 20.0861C10.2657 17.0983 13.0036 14.7946 16.2535 13.5409C19.5035 12.2873 23.0792 12.1555 26.4125 13.1667L28.4375 11.1417C28.6697 10.9092 28.9454 10.7248 29.2489 10.599C29.5524 10.4732 29.8778 10.4084 30.2063 10.4084C30.5348 10.4084 30.8601 10.4732 31.1636 10.599C31.4671 10.7248 31.7429 10.9092 31.975 11.1417L31.9771 11.1437Z" stroke="#FFE870" stroke-width="2" stroke-linecap="round" stroke-linejoin="round"/>
<path d="M35.4167 14.5833L38.1105 11.8896C38.5775 11.4226 38.9479 10.8681 39.2006 10.258C39.4533 9.64777 39.5834 8.99378 39.5834 8.33333C39.5834 7.7808 39.8029 7.25089 40.1936 6.86019C40.5843 6.46949 41.1142 6.25 41.6667 6.25H43.75M14.5834 27.0833C14.5834 25.4257 15.2419 23.836 16.414 22.6639C17.5861 21.4918 19.1758 20.8333 20.8334 20.8333" stroke="#FFE870" stroke-width="2" stroke-linecap="round" stroke-linejoin="round"/>
</svg>
