<svg width="50" height="50" viewBox="0 0 50 50" fill="none" xmlns="http://www.w3.org/2000/svg">
<path d="M34.0113 34.5512C34.0113 36.9246 33.1134 39.2008 31.5151 40.8791C29.9168 42.5573 27.749 43.5001 25.4886 43.5001C23.2282 43.5001 21.0605 42.5573 19.4621 40.8791C17.8638 39.2008 16.9659 36.9246 16.9659 34.5512C16.9659 25.6024 25.4886 19.6365 25.4886 19.6365C25.4886 19.6365 34.0113 25.6024 34.0113 34.5512Z" stroke="#FFE870" stroke-width="2" stroke-linecap="round" stroke-linejoin="round"/>
<path d="M39.9773 28.2656C39.9773 32.306 38.4508 36.181 35.7336 39.038C33.0165 41.895 29.3313 43.5 25.4886 43.5C21.646 43.5 17.9608 41.895 15.2436 39.038C12.5265 36.181 11 32.306 11 28.2656C11 15.375 25.4886 6 25.4886 6C25.4886 6 39.9773 15.375 39.9773 28.2656Z" stroke="#FFE870" stroke-width="2" stroke-linecap="round" stroke-linejoin="round"/>
</svg>
