<svg width="50" height="50" viewBox="0 0 50 50" fill="none" xmlns="http://www.w3.org/2000/svg">
<g clip-path="url(#clip0_159_423)">
<path d="M21.0938 22.6562L27.3438 28.9062" stroke="#FFE870" stroke-width="2" stroke-linecap="round" stroke-linejoin="round"/>
<path d="M44.543 19.5195L36.7188 27.3437" stroke="#FFE870" stroke-width="2" stroke-linecap="round" stroke-linejoin="round"/>
<path d="M7.8125 12.5001L10.502 9.72079C12.098 8.12452 13.9928 6.85827 16.0783 5.99435C18.1637 5.13044 20.3989 4.68579 22.6563 4.68579C24.9136 4.68579 27.1488 5.13044 29.2342 5.99435C31.3197 6.85827 33.2145 8.12452 34.8105 9.72079L47.9805 22.9806C48.2733 23.2736 48.4378 23.6708 48.4378 24.0851C48.4378 24.4993 48.2733 24.8965 47.9805 25.1895L42.3828 30.7931C42.0898 31.0859 41.6925 31.2503 41.2783 31.2503C40.8641 31.2503 40.4668 31.0859 40.1738 30.7931L32.8125 23.4376L12.957 43.2931C12.664 43.5859 12.2668 43.7503 11.8525 43.7503C11.4383 43.7503 11.041 43.5859 10.748 43.2931L6.70703 39.2579C6.41423 38.9649 6.24975 38.5676 6.24975 38.1534C6.24975 37.7392 6.41423 37.3419 6.70703 37.0489L26.5625 17.1876L15.582 6.20712" stroke="#FFE870" stroke-width="2" stroke-linecap="round" stroke-linejoin="round"/>
</g>
<defs>
<clipPath id="clip0_159_423">
<rect width="50" height="50" fill="white"/>
</clipPath>
</defs>
</svg>
