<svg width="50" height="50" viewBox="0 0 50 50" fill="none" xmlns="http://www.w3.org/2000/svg">
<path d="M16.25 35.4166C14.7736 35.4166 13.3347 35.1506 11.9333 34.6187C10.5319 34.0881 9.29583 33.3214 8.225 32.3187C6.825 30.9714 5.79861 29.3499 5.14583 27.4541C4.49305 25.5583 4.16666 23.6117 4.16666 21.6145C4.16666 19.5478 4.65278 17.8589 5.625 16.5478C6.59722 15.2381 8.01666 14.5833 9.88333 14.5833C10.2097 14.5833 10.5361 14.6131 10.8625 14.6728C11.1903 14.7339 11.5132 14.8242 11.8312 14.9437L23.4357 18.0775C24.4602 18.3542 25.5398 18.3542 26.5643 18.0775L38.1687 14.9437C38.4868 14.8242 38.8097 14.7339 39.1375 14.6728C39.4639 14.6131 39.7903 14.5833 40.1167 14.5833C41.9833 14.5833 43.4028 15.2381 44.375 16.5478C45.3472 17.8589 45.8333 19.5478 45.8333 21.6145C45.8333 23.6117 45.5069 25.5583 44.8542 27.4541C44.2014 29.3485 43.175 30.9701 41.775 32.3187C40.7042 33.3214 39.4681 34.0881 38.0667 34.6187C36.6653 35.1506 35.2264 35.4166 33.75 35.4166C31.8333 35.4166 30.109 34.8958 28.5771 33.8541L27.3405 33.0125C26.6503 32.5428 25.8348 32.2916 25 32.2916C24.1652 32.2916 23.3497 32.5428 22.6595 33.0125L21.4229 33.8541C19.891 34.8958 18.1667 35.4166 16.25 35.4166ZM16.25 33.3333C17.5347 33.3333 18.7326 33.0298 19.8437 32.4228C20.3462 32.1484 20.8309 31.8471 21.2978 31.519C22.3941 30.7485 23.6612 30.2083 25.0012 30.2083C26.3397 30.2083 27.6058 30.7471 28.7008 31.5169C29.1681 31.8455 29.6533 32.1475 30.1562 32.4228C31.2674 33.0312 32.4653 33.3346 33.75 33.3333C35 33.3333 36.2069 33.1166 37.3708 32.6833C38.5347 32.2499 39.5674 31.5812 40.4687 30.677C41.6493 29.4964 42.4917 28.1076 42.9958 26.5103C43.5 24.9131 43.7514 23.2812 43.75 21.6145C43.75 20.1909 43.4549 19.002 42.8646 18.0478C42.2743 17.0937 41.3368 16.6333 40.0521 16.6666C39.9479 16.6666 39.566 16.736 38.9062 16.8749L26.4874 20.0527C25.5115 20.3024 24.4885 20.3024 23.5126 20.0527L11.0937 16.8749C10.9201 16.8055 10.7382 16.7534 10.5479 16.7187C10.3576 16.6839 10.1576 16.6666 9.94791 16.6666C8.66319 16.6666 7.72569 17.1353 7.13541 18.0728C6.54514 19.0103 6.25 20.1909 6.25 21.6145C6.25 23.3159 6.50208 24.9652 7.00625 26.5624C7.51041 28.1596 8.36944 29.5485 9.58333 30.7291C10.4861 31.5971 11.5104 32.2485 12.6562 32.6833C13.8021 33.118 15 33.3346 16.25 33.3333ZM18.8021 29.5666C19.8729 29.5666 20.7132 29.3402 21.3229 28.8874C21.9312 28.4346 22.2486 27.7985 22.275 26.9791C22.2222 25.4374 21.1493 23.961 19.0562 22.5499C16.9632 21.1388 14.7604 20.4333 12.4479 20.4333C11.3771 20.4333 10.5368 20.6596 9.92708 21.1124C9.31875 21.5652 9.00139 22.2013 8.975 23.0208C9.02778 24.5624 10.1007 26.0388 12.1937 27.4499C14.2868 28.861 16.4896 29.5666 18.8021 29.5666ZM18.7292 27.7249C16.9833 27.7249 15.2639 27.2173 13.5708 26.202C11.8792 25.1881 10.9611 24.136 10.8167 23.0458C10.8833 22.8152 11.0632 22.6277 11.3562 22.4833C11.6479 22.3374 12.0361 22.2645 12.5208 22.2645C14.2667 22.2645 15.9861 22.7735 17.6792 23.7916C19.3708 24.811 20.2889 25.8652 20.4333 26.9541C20.3667 27.1846 20.1868 27.3708 19.8937 27.5124C19.6021 27.6541 19.2139 27.7249 18.7292 27.7249ZM31.1979 29.6208C33.5104 29.6208 35.7132 28.9055 37.8062 27.4749C39.8993 26.0471 40.9722 24.5624 41.025 23.0208C40.9986 22.2277 40.6833 21.5888 40.0792 21.1041C39.4736 20.6221 38.6312 20.3812 37.5521 20.3812C35.266 20.4339 33.0701 21.168 30.9646 22.5833C28.8576 23.9999 27.7778 25.4652 27.725 26.9791C27.7514 27.7721 28.0687 28.411 28.6771 28.8958C29.2868 29.3777 30.1271 29.6187 31.1979 29.6187M31.2708 27.7645C30.8125 27.7367 30.4326 27.6527 30.1312 27.5124C29.8299 27.3708 29.6458 27.1846 29.5792 26.9541C29.7236 25.8916 30.6417 24.8527 32.3333 23.8374C34.025 22.8235 35.7444 22.2895 37.4917 22.2353C37.9486 22.2631 38.3278 22.3471 38.6292 22.4874C38.9319 22.6291 39.1167 22.8152 39.1833 23.0458C39.0389 24.1346 38.1208 25.1937 36.4292 26.2228C34.7361 27.2506 33.0167 27.7645 31.2708 27.7645Z" fill="#FFE870"/>
</svg>
